<svg xmlns="http://www.w3.org/2000/svg" baseProfile="tiny" width="1648" height="480.5"><style><![CDATA[.B{stroke:#414042}.C{stroke-miterlimit:10}]]></style><path d="M547.032 90.296l28.502 47.64h-5.811L541.41 90.549h-33.504v47.387h-5.109V28.732h39.665c19.189 0 33.19 12.987 33.19 31.006-.001 16.376-11.818 28.668-28.62 30.558zm-39.126-4.661h34.36c16.576 0 28.198-10.92 28.198-25.936 0-15.094-11.739-26.053-28.198-26.053h-34.36v51.989zM675.1 132.983v4.953h-60.452V28.732h58.736v4.914h-53.627v44.813h49.571v4.836h-49.571v49.688H675.1zm103.394-26.677h-60.111l-13.491 31.63h-5.46l46.333-109.204h4.407l47.582 109.204h-5.538l-13.722-31.63zm-58.114-4.797h56.078l-28.404-65.363-27.674 65.363zm169.569 31.552v4.875h-58.463V28.732h5.109v104.329h53.354zm33.264-104.329h5.109v109.204h-5.109V28.732zm114.739 4.875h-35.608v104.329h-5.109V33.607h-35.608v-4.875h76.326v4.875zm68.988 61.19v43.139h-5.226V94.893l-41.654-66.161h5.694l38.618 61.151 38.956-61.151h5.694l-42.082 66.065zM844.873 229.213c0 39.628-25.871 67.781-63.795 67.781-37.106 0-64.515-26.668-64.515-63.513s26.911-63.712 64.217-63.712c31.743 0 57.709 19.865 62.832 48.007H808.65c-4.382-10.202-15.219-16.761-27.57-16.761-18.14 0-30.366 13.117-30.366 32.468 0 19.151 12.027 32.269 30.366 32.269 12.733 0 23.651-6.163 27.459-15.501h-30.077v-21.034l66.411-.004zm62.301 27.669h-12.096v37.054h-33.364V172.833h52.489c26.108 0 45.033 17.543 45.033 42.858 0 14.861-7.259 27.039-19.223 34.201l24.046 44.043h-37.237l-19.648-37.053zm-12.096-28.105h15.24c9.327 0 14.695-5.616 14.695-13.186s-5.369-13.11-14.695-13.11h-15.24v26.296zm156.711 45.49h-42.926l-6.708 19.669h-35.753l47.571-121.103h32.613l48.614 121.103h-36.739l-6.672-19.669zm-21.531-63.634l-13.269 37.526h26.658l-13.389-37.526zm173.023 5.954c0 25.396-19.125 43.902-44.867 43.902h-18.123v33.447h-33.438V172.833h51.561c25.742 0 44.867 18.359 44.867 43.754zm-34.296.075c0-8.609-5.789-14.695-14.57-14.695h-14.123v29.39h14.123c8.781 0 14.57-6.088 14.57-14.695zm153.109-43.829v121.103h-33.658v-46.49h-36.341v46.49h-33.657V172.833h33.657v43.692h36.341v-43.692h33.658zm23.324 0h33.805v121.103h-33.805V172.833zM1460.763 297c-36.86 0-64.39-27.288-64.39-63.513 0-36.426 27.529-63.714 64.39-63.714 31.737 0 56.319 20.949 61.241 51.656h-33.803c-4.158-12.42-14.621-20.483-27.366-20.483-17.148 0-29.726 13.788-29.726 32.54 0 18.679 12.577 32.269 29.726 32.269 13.438 0 24.001-8.755 27.394-22.213h34.123c-4.604 31.843-29.333 53.458-61.589 53.458h0zm71.661-42.168h34.417c0 8.65 6.675 12.861 14.281 12.861 6.988 0 13.663-3.718 13.663-10.333 0-7.597-9.428-9.799-20.955-12.593-17.504-4.351-39.85-9.714-39.85-37.284 0-23.849 17.522-37.511 46.078-37.511 29.033 0 45.684 14.904 45.684 39.543h-33.459c0-7.659-5.709-11.25-12.624-11.25-5.944 0-11.654 2.574-11.654 8.227 0 6.878 9.128 9.153 20.531 12.02 17.824 4.599 41.132 10.553 41.132 38.208 0 26.449-20.325 40.179-48.447 40.179-29.641-.001-48.797-15.67-48.797-42.067zm-713.2 117.755c0 25.396-19.125 43.901-44.867 43.901h-18.123v33.447h-33.438V328.833h51.561c25.741 0 44.867 18.359 44.867 43.754zm-34.297.075c0-8.608-5.789-14.694-14.57-14.694h-14.123v29.39h14.123c8.782-.001 14.57-6.089 14.57-14.696zm94.912 40.22h-12.096v37.054h-33.364V328.833h52.489c26.108 0 45.033 17.542 45.033 42.859 0 14.86-7.259 27.038-19.223 34.201l24.046 44.043h-37.237l-19.648-37.054zm-12.096-28.104h15.24c9.327 0 14.695-5.616 14.695-13.187s-5.369-13.11-14.695-13.11h-15.24v26.297zm83.584-55.945h33.805v121.103h-33.805V328.833zm165.296 0v121.103h-27.593l-48.11-65.721v65.721h-32.331V328.833h29.201l46.502 63.536v-63.536h32.331zm114.262 30.041h-32.897v91.063h-33.509v-91.063h-32.898v-30.041h99.305v30.041zm-528.925 89.79l-33.338-34.674c-19.62 24.462-49.467 38.677-85.867 38.677-48.229 0-79.958-27.824-79.958-68.146 0-41.102 30.729-63.799 63.209-84.172-28.68-36.134-37.826-57.05-37.826-76.721 0-31.535 25.481-52.33 62.288-52.33 35.439 0 60.627 20.502 60.627 49.596 0 39.735-34.854 61.311-68.438 82.008l-.105.066c19.635 24.032 47.053 54.247 84.317 93.459 10.422-17.046 16.249-38.35 16.249-62.772h11.13c0 27.856-6.85 52.134-19.19 71.375l42.035 43.632H701.96zm-41.406-43.133c-39.142-41.121-67.458-72.132-87.589-96.583-30.905 19.482-58.16 39.805-58.16 75.28 0 33.878 27.532 56.82 68.731 56.82 32.413.001 59.366-13.007 77.018-35.517zm-84.903-111.164l.562-.347c32.413-19.917 63.362-39.248 63.362-73.125 0-22.846-20.502-39.052-49.107-39.052-30.265 0-50.768 16.89-50.768 41.786 0 16.921 9.79 37.493 35.951 70.738z" fill="#3a3738" class="B C"/><g fill="none" stroke-width="8" class="B C"><path d="M244.284 44.886v203.739m0 192.739v-203.74"/><path d="M46.046 243.124h203.74m192.738 0h-203.74"/><path d="M145.166 71.447l101.87 176.442"/><path d="M343.405 414.805l-101.87-176.444"/><path d="M72.605 342.245l176.444-101.871"/><path d="M415.965 144.005l-176.444 101.87"/><path d="M72.606 144.008l176.443 101.867m166.914 96.37l-176.442-101.87"/><path d="M145.164 414.805L247.035 238.36m96.368-166.916l-101.87 176.445"/><path d="M192.977 51.642l52.73 196.797m49.885 186.169l-52.731-196.797"/><path d="M52.802 294.432L249.6 241.7m186.168-49.884l-196.797 52.733"/><path d="M104.109 102.952l144.065 144.062M384.461 383.3L240.396 239.236"/><path d="M104.109 383.3l144.065-144.065M384.46 102.949L240.395 247.014"/><path d="M52.804 191.818L249.6 244.55"/><path d="M435.767 294.432l-196.796-52.73"/><path d="M192.976 434.608l52.731-196.797m49.884-186.169l-52.73 196.797"/></g><circle stroke-width="76" cx="244.285" cy="243.125" r="90.866" class="B"/><g fill="none" stroke-width="8" class="C B"><path d="M218.409 46.583l26.594 201.998m25.158 191.086l-26.595-201.996"/><path d="M47.743 269l201.998-26.593m191.086-25.158l-201.996 26.594"/><path d="M123.605 85.854l124.029 161.637m117.331 152.905L240.937 238.761"/><path d="M87.012 363.805l161.637-124.031m152.909-117.329L239.92 246.474"/><path d="M61.139 167.266l188.229 77.964m178.063 73.756L239.202 241.02"/><path d="M168.421 426.271l77.968-188.229m73.757-178.066l-77.967 188.232"/><path d="M168.422 59.979l77.967 188.23m73.757 178.065l-77.967-188.231"/><path d="M61.137 318.986l188.231-77.966m178.065-73.757L239.202 245.23"/><path d="M87.012 122.447l161.637 124.027m152.909 117.331L239.921 239.778"/><path d="M123.605 400.397l124.029-161.636M364.965 85.853l-124.03 161.636"/><path d="M47.745 217.25l201.996 26.596M440.826 269l-201.995-26.593"/><path d="M218.408 439.667l26.594-201.995m25.157-191.089l-26.593 201.998"/></g><circle cx="244.285" cy="243.125" r="90.866" class="B"/><circle fill="#fff" cx="244.285" cy="243.125" r="33.258" class="B"/><circle fill="none" stroke-width="11" cx="244.285" cy="243.125" r="210.56" class="B"/></svg>