<svg xmlns="http://www.w3.org/2000/svg" baseProfile="tiny" width="1601.443" height="432.12"><style><![CDATA[.B{stroke-width:8}.C{stroke-miterlimit:10}.D{stroke:#ec008c}.E{stroke:#fff200}.F{stroke:#00aeef}]]></style><path d="M518.807 63.231l28.502 47.64h-5.811l-28.313-47.387h-33.504v47.387h-5.109V1.667h39.665c19.189 0 33.19 12.987 33.19 31.006-.001 16.376-11.818 28.668-28.62 30.558zm-39.126-4.661h34.36c16.576 0 28.198-10.92 28.198-25.936 0-15.094-11.739-26.053-28.198-26.053h-34.36V58.57zm167.194 47.348v4.953h-60.452V1.667h58.736v4.914h-53.627v44.813h49.571v4.836h-49.571v49.688h55.343zm103.394-26.677h-60.111l-13.491 31.63h-5.46L717.541 1.667h4.407l47.582 109.204h-5.538l-13.723-31.63zm-58.114-4.797h56.078L719.829 9.081l-27.674 65.363zm169.569 31.552v4.875H803.26V1.667h5.109v104.329h53.355zM894.988 1.667h5.109v109.204h-5.109V1.667zm114.739 4.875h-35.608v104.329h-5.109V6.542H933.4V1.667h76.326v4.875zm68.988 61.19v43.139h-5.226V67.828l-41.654-66.161h5.694l38.618 61.151 38.956-61.151h5.694l-42.082 66.065zM816.648 202.148c0 39.628-25.871 67.781-63.795 67.781-37.106 0-64.515-26.668-64.515-63.513s26.911-63.712 64.217-63.712c31.743 0 57.709 19.865 62.832 48.007h-34.962c-4.382-10.202-15.219-16.761-27.57-16.761-18.14 0-30.366 13.117-30.366 32.468 0 19.151 12.027 32.269 30.366 32.269 12.733 0 23.651-6.163 27.459-15.501h-30.077v-21.034l66.411-.004zm62.301 27.669h-12.096v37.054h-33.364V145.768h52.489c26.108 0 45.033 17.543 45.033 42.858 0 14.861-7.259 27.039-19.223 34.201l24.046 44.043h-37.237l-19.648-37.053zm-12.096-28.105h15.24c9.327 0 14.695-5.616 14.695-13.186s-5.369-13.11-14.695-13.11h-15.24v26.296zm156.71 45.49h-42.926l-6.708 19.669h-35.753l47.571-121.103h32.613l48.614 121.103h-36.739l-6.672-19.669zm-21.53-63.634l-13.269 37.526h26.658l-13.389-37.526zm173.023 5.954c0 25.396-19.125 43.902-44.867 43.902h-18.123v33.447h-33.438V145.768h51.561c25.742 0 44.867 18.359 44.867 43.754zm-34.296.075c0-8.609-5.789-14.695-14.57-14.695h-14.123v29.39h14.123c8.781 0 14.57-6.088 14.57-14.695zm153.109-43.829v121.103h-33.658v-46.49h-36.341v46.49h-33.657V145.768h33.657v43.692h36.341v-43.692h33.658zm23.324 0h33.805v121.103h-33.805V145.768zm115.345 124.167c-36.86 0-64.39-27.288-64.39-63.513 0-36.426 27.529-63.714 64.39-63.714 31.737 0 56.319 20.949 61.241 51.656h-33.803c-4.158-12.42-14.621-20.483-27.366-20.483-17.148 0-29.726 13.788-29.726 32.54 0 18.679 12.577 32.269 29.726 32.269 13.438 0 24.001-8.755 27.394-22.213h34.123c-4.604 31.843-29.333 53.458-61.589 53.458h0zm71.661-42.168h34.417c0 8.65 6.675 12.861 14.281 12.861 6.988 0 13.663-3.718 13.663-10.333 0-7.597-9.428-9.799-20.955-12.593-17.504-4.351-39.85-9.714-39.85-37.284 0-23.849 17.522-37.511 46.078-37.511 29.033 0 45.684 14.904 45.684 39.543h-33.459c0-7.659-5.709-11.25-12.624-11.25-5.944 0-11.654 2.574-11.654 8.227 0 6.878 9.128 9.153 20.531 12.02 17.824 4.599 41.132 10.553 41.132 38.208 0 26.449-20.325 40.179-48.447 40.179-29.641-.001-48.797-15.67-48.797-42.067zm-713.2 117.755c0 25.396-19.125 43.901-44.867 43.901h-18.123v33.447h-33.438V301.768h51.561c25.741 0 44.867 18.359 44.867 43.754zm-34.297.075c0-8.608-5.789-14.694-14.57-14.694h-14.123v29.39h14.123c8.782-.001 14.57-6.089 14.57-14.696zm94.912 40.22h-12.096v37.054h-33.364V301.768h52.489c26.108 0 45.033 17.542 45.033 42.859 0 14.86-7.259 27.038-19.223 34.201l24.046 44.043h-37.237l-19.648-37.054zm-12.096-28.104h15.24c9.327 0 14.695-5.616 14.695-13.187s-5.369-13.11-14.695-13.11h-15.24v26.297zm83.584-55.945h33.805v121.103h-33.805V301.768zm165.295 0v121.103h-27.593l-48.11-65.721v65.721h-32.331V301.768h29.201l46.502 63.536v-63.536h32.331zm114.263 30.041h-32.897v91.063h-33.509v-91.063h-32.898v-30.041h99.305v30.041zm-528.925 89.79l-33.338-34.674c-19.62 24.462-49.467 38.677-85.867 38.677-48.229 0-79.958-27.824-79.958-68.146 0-41.102 30.729-63.799 63.209-84.172-28.68-36.134-37.826-57.05-37.826-76.721 0-31.535 25.481-52.33 62.288-52.33 35.439 0 60.627 20.502 60.627 49.596 0 39.735-34.854 61.311-68.438 82.008l-.105.066c19.635 24.032 47.053 54.247 84.317 93.459 10.422-17.046 16.249-38.35 16.249-62.772h11.13c0 27.856-6.85 52.134-19.19 71.375l42.035 43.632h-15.133zm-41.406-43.133c-39.142-41.121-67.458-72.132-87.589-96.583-30.905 19.482-58.16 39.805-58.16 75.28 0 33.878 27.532 56.82 68.731 56.82 32.413.001 59.366-13.007 77.018-35.517zm-84.903-111.164l.562-.347c32.413-19.917 63.362-39.248 63.362-73.125 0-22.846-20.502-39.052-49.107-39.052-30.265 0-50.768 16.89-50.768 41.786 0 16.921 9.79 37.493 35.951 70.738z" fill="#3a3738"/><g fill="none" class="B C"><path d="M216.059 17.821v203.74m0 192.738v-203.74" class="D"/><path d="M17.821 216.059h203.74m192.738 0h-203.74" class="E"/><g class="F"><path d="M116.941 44.382l101.87 176.442"/><path d="M315.18 387.74L213.31 211.296"/><path d="M44.38 315.18l176.444-101.871M387.74 116.94L211.296 218.811"/></g><g class="D"><path d="M44.381 116.943l176.443 101.868"/><path d="M387.738 315.18L211.296 213.31"/></g><path d="M116.938 387.74L218.81 211.295m96.368-166.916l-101.87 176.445" class="E"/><path d="M164.751 24.577l52.731 196.797m49.885 186.169l-52.731-196.797" class="D"/><path d="M24.577 267.367l196.798-52.732m186.168-49.884l-196.797 52.733" class="E"/><g class="F"><path d="M75.884 75.887l144.065 144.062m136.287 136.286L212.171 212.171"/><path d="M75.884 356.235L219.949 212.17M356.235 75.884L212.17 219.949"/></g><g class="D"><path d="M24.579 164.753l196.796 52.732"/><path d="M407.542 267.367l-196.796-52.73"/></g><path d="M164.75 407.543l52.732-196.797m49.884-186.169l-52.73 196.797" class="E"/></g><circle stroke="#fff" stroke-width="76" cx="216.06" cy="216.06" r="90.866"/><g fill="none" class="B C"><path d="M190.184 19.518l26.594 201.998m25.158 191.086l-26.595-201.996" class="D"/><path d="M19.518 241.936l201.998-26.594m191.086-25.158l-201.997 26.594" class="E"/><g class="F"><path d="M95.38 58.79l124.029 161.636M336.74 373.332L212.711 211.696"/><path d="M58.787 336.74l161.637-124.031M373.333 95.38L211.695 219.409"/></g><path d="M32.914 140.201l188.229 77.965m178.063 73.755l-188.229-77.966" class="D"/><path d="M140.196 399.206l77.968-188.229m73.757-178.066l-77.967 188.232" class="E"/><path d="M140.197 32.914l77.967 188.231m73.757 178.064l-77.967-188.231" class="D"/><path d="M32.912 291.921l188.231-77.966m178.065-73.757l-188.231 77.968" class="E"/><g class="F"><path d="M58.787 95.382l161.637 124.027M373.333 336.74L211.696 212.713"/><path d="M95.38 373.333l124.029-161.637M336.74 58.788L212.709 220.424"/></g><path d="M19.52 190.185l201.996 26.596m191.085 25.155l-201.996-26.594" class="D"/><path d="M190.183 412.602l26.594-201.995m25.157-191.089l-26.593 201.998" class="E"/></g><circle cx="216.06" cy="216.06" r="90.866"/><circle fill="#fff" cx="216.06" cy="216.06" r="33.258"/><circle fill="none" stroke="#3a3738" stroke-width="11" cx="216.06" cy="216.06" r="210.56"/></svg>