<svg xmlns="http://www.w3.org/2000/svg" baseProfile="tiny" width="432.12" height="432.12"><style><![CDATA[.B{stroke-width:8}.C{stroke-miterlimit:10}.D{stroke:#ec008c}.E{stroke:#fff200}.F{stroke:#00aeef}]]></style><g fill="none" class="B C"><path d="M216.059 17.821v203.74m0 192.738v-203.74" class="D"/><path d="M17.821 216.059h203.74m192.738 0h-203.74" class="E"/><g class="F"><path d="M116.941 44.382l101.87 176.442"/><path d="M315.18 387.74L213.31 211.296"/><path d="M44.38 315.18l176.444-101.871M387.74 116.94L211.296 218.811"/></g><g class="D"><path d="M44.381 116.943l176.443 101.868"/><path d="M387.738 315.18L211.296 213.31"/></g><path d="M116.938 387.74L218.81 211.295m96.368-166.916l-101.87 176.445" class="E"/><path d="M164.751 24.577l52.731 196.797m49.885 186.169l-52.731-196.797" class="D"/><path d="M24.577 267.367l196.798-52.732m186.168-49.884l-196.797 52.733" class="E"/><g class="F"><path d="M75.884 75.887l144.065 144.062m136.287 136.286L212.171 212.171"/><path d="M75.884 356.235L219.949 212.17M356.235 75.884L212.17 219.949"/></g><g class="D"><path d="M24.579 164.753l196.796 52.732"/><path d="M407.542 267.367l-196.796-52.73"/></g><path d="M164.75 407.543l52.732-196.797m49.884-186.169l-52.73 196.797" class="E"/></g><circle stroke="#fff" stroke-width="76" cx="216.06" cy="216.06" r="90.866"/><g fill="none" class="B C"><path d="M190.184 19.518l26.594 201.998m25.158 191.086l-26.595-201.996" class="D"/><path d="M19.518 241.936l201.998-26.594m191.086-25.158l-201.997 26.594" class="E"/><g class="F"><path d="M95.38 58.79l124.029 161.636M336.74 373.332L212.711 211.696"/><path d="M58.787 336.74l161.637-124.031M373.333 95.38L211.695 219.409"/></g><path d="M32.914 140.201l188.229 77.965m178.063 73.755l-188.229-77.966" class="D"/><path d="M140.196 399.206l77.968-188.229m73.757-178.066l-77.967 188.232" class="E"/><path d="M140.197 32.914l77.967 188.231m73.757 178.064l-77.967-188.231" class="D"/><path d="M32.912 291.921l188.231-77.966m178.065-73.757l-188.231 77.968" class="E"/><g class="F"><path d="M58.787 95.382l161.637 124.027M373.333 336.74L211.696 212.713"/><path d="M95.38 373.333l124.029-161.637M336.74 58.788L212.709 220.424"/></g><path d="M19.52 190.185l201.996 26.596m191.085 25.155l-201.996-26.594" class="D"/><path d="M190.183 412.602l26.594-201.995m25.157-191.089l-26.593 201.998" class="E"/></g><circle cx="216.06" cy="216.06" r="90.866"/><circle fill="#fff" cx="216.06" cy="216.06" r="33.258"/><circle fill="none" stroke="#3a3738" stroke-width="11" cx="216.06" cy="216.06" r="210.56"/></svg>